# xmcd CD database file
#
# Track frame offsets:
#	150
#	38376
#	77419
#	114243
#	125388
#	151503
#	275778
#
# Disc length: 4441 seconds
#
# Revision: 2
# Processed by: cddbd v1.5PL3 Copyright (c) Steve Scherf et al.
# Submitted via: CDex 1.50
#
DISCID=44115707
DTITLE=Jimi Hendrix - The Blues Project Outtakes
DYEAR=2004
DGENRE=Blues
TTITLE0=New Rising Sun
TTITLE1=Country Blues (straight mix)
TTITLE2=Hear My train A Comin'
TTITLE3=Belly Button Window
TTITLE4=The Things That I used To Do
TTITLE5=Villanova Junction Blues Jam
TTITLE6=3 Little Bears- South Saturn Delta
EXTD=YEAR: 2004
EXTT0=
EXTT1=
EXTT2=
EXTT3=
EXTT4=
EXTT5=
EXTT6=
PLAYORDER=
